<svg xmlns="http://www.w3.org/2000/svg" viewBox="0 0 1024 1024" width="1024" height="1024" data-candidate-id="v099-infected-face-a">
  <!-- Project-original Gate A candidate. No external artwork, font, or traced source. -->
  <defs>
    <radialGradient id="a-bg" cx="54%" cy="42%" r="78%">
      <stop offset="0" stop-color="#3b201c"/>
      <stop offset=".48" stop-color="#171817"/>
      <stop offset="1" stop-color="#080a0a"/>
    </radialGradient>
    <linearGradient id="a-skin" x1=".2" y1="0" x2=".85" y2="1">
      <stop offset="0" stop-color="#9aa68c"/>
      <stop offset=".48" stop-color="#626b58"/>
      <stop offset="1" stop-color="#27332d"/>
    </linearGradient>
    <linearGradient id="a-rot" x1="0" y1="0" x2="1" y2="1">
      <stop offset="0" stop-color="#b74a31"/>
      <stop offset="1" stop-color="#381713"/>
    </linearGradient>
    <radialGradient id="a-eye" cx="50%" cy="50%" r="50%">
      <stop offset="0" stop-color="#fff4a0"/>
      <stop offset=".28" stop-color="#ffb52f"/>
      <stop offset=".65" stop-color="#db4b25" stop-opacity=".75"/>
      <stop offset="1" stop-color="#db4b25" stop-opacity="0"/>
    </radialGradient>
    <filter id="a-shadow" x="-30%" y="-30%" width="160%" height="170%">
      <feDropShadow dx="0" dy="24" stdDeviation="18" flood-color="#000" flood-opacity=".72"/>
    </filter>
  </defs>
  <g id="backdrop">
    <rect width="1024" height="1024" fill="url(#a-bg)"/>
    <circle cx="512" cy="512" r="405" fill="none" stroke="#e45f33" stroke-width="18" stroke-opacity=".18"/>
    <path d="M180 668H844M212 706H812" stroke="#61c8b4" stroke-width="12" stroke-opacity=".16"/>
    <path d="M735 254h112v48H735z" fill="#0d1615" stroke="#d99043" stroke-width="8" opacity=".72"/>
    <path d="M758 278h66" stroke="#70cfbd" stroke-width="8" opacity=".72"/>
  </g>
  <g id="mark" transform="translate(25.6 25.6) scale(.95)">
    <path d="M308 810Q354 748 381 719L645 708Q696 752 726 810Z" fill="#111514" stroke="#c86539" stroke-width="12"/>
    <path d="M413 661L401 760Q492 811 601 754L591 655Z" fill="#4d5a4c" stroke="#181d1a" stroke-width="18"/>
    <path d="M323 432Q324 269 457 201Q583 137 701 252Q760 311 742 449L707 615Q682 722 584 769Q475 808 383 727Q320 670 300 554Z" fill="url(#a-skin)" stroke="#141917" stroke-width="22" stroke-linejoin="round"/>
    <path d="M323 432Q330 272 454 204Q388 182 335 223Q281 266 270 358L296 492Z" fill="#171a19"/>
    <path d="M327 333L285 296L332 286L308 231L372 249L390 190L431 230L477 162L498 230L553 181L566 241L639 203L621 268L699 248L662 323Z" fill="#171b1a" stroke="#4b554b" stroke-width="9" stroke-linejoin="round"/>
    <path d="M350 452Q413 391 481 430L458 504Q394 527 338 491Z" fill="#151817"/>
    <path d="M545 425Q622 385 688 452L676 504Q606 530 548 493Z" fill="#101313"/>
    <ellipse cx="419" cy="464" rx="50" ry="46" fill="url(#a-eye)"/>
    <circle cx="419" cy="464" r="15" fill="#f9ca4b" stroke="#29140e" stroke-width="8"/>
    <circle cx="423" cy="460" r="4" fill="#fffbd2"/>
    <path d="M574 451l25-19 17 18 28-9 12 25-24 29-42-2z" fill="#7fa47e" opacity=".7"/>
    <path d="M517 459L482 579L547 592" fill="none" stroke="#303b33" stroke-width="24" stroke-linecap="round" stroke-linejoin="round"/>
    <path d="M476 527l31 18M498 489l28 12M523 553l30 11" stroke="#d55c35" stroke-width="10" stroke-linecap="round"/>
    <path d="M369 591Q476 555 668 586Q646 715 523 727Q402 715 369 591Z" fill="#25110e" stroke="#111514" stroke-width="16"/>
    <path d="M391 608Q482 579 640 603Q613 654 526 662Q439 657 391 608Z" fill="#d9c7a0"/>
    <path d="M424 596l-4 57M462 589l-2 69M501 586v74M542 588l4 70M583 591l9 56" stroke="#40362c" stroke-width="9"/>
    <path d="M414 677Q519 711 622 668Q590 733 522 741Q454 734 414 677Z" fill="url(#a-rot)"/>
    <path d="M643 530Q695 543 708 590Q722 641 682 681L632 628Z" fill="#8f3b2c"/>
    <circle cx="677" cy="578" r="15" fill="#d8673c"/>
    <path d="M342 548l-44-30M354 574l-49 4M687 373l54-26" stroke="#d58045" stroke-width="12" stroke-linecap="round" opacity=".72"/>
  </g>
</svg>
